# xmcd CD database file
#
# Track frame offsets:
#	150
#	10469
#	20616
#	33027
#	43810
#	54341
#	65546
#	82992
#	101109
#	114159
#	139260
#	153033
#	165777
#
# Disc length: 2509 seconds
#
# Revision: 0
# Processed by: cddbd v1.5.1PL0 Copyright (c) Steve Scherf et al.
# Submitted via: Feurio! 1.67 - http://www.feurio.com
#
DISCID=9509cb0d
DTITLE=Johnny Cash - American I (American Recordings)
DYEAR=1900
DGENRE=
TTITLE0=Delia's Gone
TTITLE1=Let the Train blow the Whistle
TTITLE2=The Beast in me
TTITLE3=Drive On
TTITLE4=Why me Lord
TTITLE5=Thirteen
TTITLE6=Oh bury me not
TTITLE7=Bird on a Wire
TTITLE8=Tennessee Stud
TTITLE9=Down there by the Train
TTITLE10=Redemption
TTITLE11=Like a Soldier
TTITLE12=The Man who couldn't cry
EXTD=
EXTT0=
EXTT1=
EXTT2=
EXTT3=
EXTT4=
EXTT5=
EXTT6=
EXTT7=
EXTT8=
EXTT9=
EXTT10=
EXTT11=
EXTT12=
PLAYORDER=
